PathFileType	3	(X/Y/Z)	RCH0000002 BBF 10.c3d
DataRate	CameraRate	NumFrames	NumMarkers	Units	OrigDataRate	OrigDataStartFrame	OrigNumFrames
100.0	100.0	6	23	mm	100.0	166	464
Frame#	Time	MAN			RASI			LKNE			LANK			LHEE			LTOE			RPAT			RKNE			RANK			RMED			RHEE			RTOE			LPAT			RPSI			LMED			LASI			T2			LPSI			T10			RTHI			LTHI			RTIB			LTIB			
		X1	Y1	Z1	X2	Y2	Z2	X3	Y3	Z3	X4	Y4	Z4	X5	Y5	Z5	X6	Y6	Z6	X7	Y7	Z7	X8	Y8	Z8	X9	Y9	Z9	X10	Y10	Z10	X11	Y11	Z11	X12	Y12	Z12	X13	Y13	Z13	X14	Y14	Z14	X15	Y15	Z15	X16	Y16	Z16	X17	Y17	Z17	X18	Y18	Z18	X19	Y19	Z19	X20	Y20	Z20	X21	Y21	Z21	X22	Y22	Z22	X23	Y23	Z23	

166	1.650	-1768.45228	61.97935	914.70958	-1812.86599	-16.00367	620.56177	-1962.10825	174.49434	314.11956	-2144.10007	193.57657	111.33850	-2161.77724	157.72108	160.46746	-2113.07648	152.43110	78.23332	-1727.19463	50.39947	376.17188	-1758.93406	-8.85694	332.36973	-1816.99345	-46.51570	70.78540	-1837.81184	20.84465	79.33771	-1866.08565	-21.32911	101.43862	-1777.76667	-4.92324	64.82759	-1906.22733	115.59433	332.07703	-1929.60333	17.89581	676.14579	-2140.91354	124.48192	124.91269	-1842.77556	157.52424	617.01680	-1898.70712	50.00568	952.10812	-1939.38936	87.17909	674.17687	-1906.15073	58.91908	767.33952	-1774.61181	-81.76298	440.92486	-1928.58831	241.23231	436.34489	-1772.13429	-89.65704	229.66376	-2033.20340	245.59284	228.02971	
167	1.660	-1756.84083	61.30429	916.30203	-1801.71412	-18.26874	623.23694	-1943.14494	170.55983	312.04989	-2130.44744	192.22923	115.63837	-2147.14707	156.26346	164.86010	-2101.29344	150.92583	80.79043	-1722.70930	46.11599	375.17375	-1755.76217	-12.59360	332.19741	-1817.35062	-47.95782	70.64514	-1838.23927	19.29581	80.16603	-1865.94433	-23.12014	102.17020	-1778.33923	-6.21762	64.71282	-1887.66466	111.36918	330.63167	-1917.46669	18.18319	679.08410	-2128.07841	122.84333	128.11230	-1829.80769	155.30873	615.81128	-1887.42674	49.43432	952.52814	-1926.77047	87.60644	675.18663	-1893.29270	60.00212	767.96825	-1768.44985	-85.38796	441.20598	-1911.66390	237.76280	434.56927	-1770.42429	-92.56225	228.64636	-2014.87985	242.38252	228.48772	
168	1.670	-1745.34005	60.85563	918.40979	-1790.94531	-20.73242	626.47525	-1923.81211	166.62815	310.78091	-2115.46020	190.59677	119.91050	-2131.33594	154.35467	168.99529	-2087.69203	149.38120	83.57989	-1719.19907	41.33432	374.75080	-1753.67181	-16.75710	332.66026	-1817.79780	-49.37312	70.80786	-1838.72233	17.75661	81.29107	-1865.99116	-24.87368	103.12707	-1778.96400	-7.49723	64.84831	-1868.78064	107.13539	330.16113	-1905.59393	18.41749	682.59215	-2113.65385	120.92505	131.23165	-1816.99027	152.91883	615.24558	-1876.21135	49.22673	953.58102	-1914.33027	87.96518	676.86479	-1880.71717	61.11533	769.25290	-1763.21139	-89.40010	442.04843	-1894.55409	234.27558	433.61580	-1769.58021	-95.76326	228.02997	-1996.13343	239.09047	229.57073	
169	1.680	-1733.96368	60.60931	920.99596	-1780.50814	-23.34423	630.15845	-1904.25875	162.79546	310.41301	-2099.20659	188.62172	124.01888	-2114.40677	151.91121	172.72877	-2072.22434	147.78181	86.50938	-1716.63157	36.32352	374.78584	-1752.56952	-21.15899	333.64786	-1818.22438	-50.68836	71.19296	-1839.13259	16.30431	82.59298	-1866.12217	-26.49751	104.19820	-1779.51106	-8.69613	65.16296	-1849.67407	103.03862	330.74243	-1893.96042	18.53942	686.56269	-2097.60860	118.68345	134.14041	-1804.33227	150.39767	615.36524	-1865.06702	49.33413	955.24288	-1902.06108	88.19336	679.17526	-1868.44206	62.16378	771.15425	-1758.75961	-93.62101	443.32875	-1877.40416	230.86411	433.57241	-1769.51276	-99.10076	227.76204	-1977.17425	235.76865	231.32837	
170	1.690	-1722.72144	60.53383	924.00409	-1770.34181	-26.04788	634.15423	-1884.60689	159.15239	310.99019	-2081.75122	186.25711	127.81951	-2096.41698	148.87853	175.92481	-2054.88963	146.09835	89.46857	-1714.92981	31.34096	375.16832	-1752.31985	-25.60673	335.04529	-1818.58069	-51.82739	71.74540	-1839.39292	15.02147	83.98103	-1866.27782	-27.88958	105.31124	-1779.91251	-9.75198	65.60052	-1830.41926	99.21877	332.39564	-1882.53562	18.50324	690.87317	-2079.94219	116.08677	136.71180	-1791.83430	147.79515	616.17937	-1853.99801	49.69289	957.46451	-1889.95122	88.24449	682.05143	-1856.47245	63.06113	773.60565	-1754.93782	-97.87435	444.91331	-1860.34168	227.61917	434.46981	-1770.13500	-102.41136	227.79794	-1958.16033	232.46457	233.74685	
171	1.700	-1711.61813	60.59227	927.35875	-1760.38408	-28.78517	638.32555	-1864.94342	155.77691	312.49748	-2063.14757	183.47452	131.17231	-2077.41289	145.24178	178.46874	-2035.73362	144.29222	92.33972	-1713.97326	26.60558	375.80314	-1752.75199	-29.92298	336.74311	-1818.85441	-52.72351	72.43463	-1839.46180	13.98259	85.39687	-1866.42489	-28.95618	106.43167	-1780.14331	-10.61401	66.12058	-1811.06504	95.79726	335.08437	-1871.28916	18.28193	695.39188	-2060.68516	113.12179	138.83631	-1779.49105	145.16438	617.65883	-1843.00580	50.22933	960.17391	-1877.98899	88.09236	685.39845	-1844.80350	63.73681	776.51745	-1751.58200	-102.00142	446.67231	-1843.46578	224.62206	436.27789	-1771.35003	-105.54653	228.10189	-1939.18520	229.21736	236.74702	
